<svg xmlns="http://www.w3.org/2000/svg" viewBox="0 0 3086.88 2459.87"><defs><style>.cls-1,.cls-5{fill:#f4f1ed;}.cls-2,.cls-9{fill:#efaf00;}.cls-15,.cls-2,.cls-4,.cls-8{stroke:#000;}.cls-13,.cls-14,.cls-15,.cls-17,.cls-2,.cls-4,.cls-5,.cls-6,.cls-8{stroke-linecap:round;stroke-linejoin:round;}.cls-13,.cls-15,.cls-2,.cls-4,.cls-5,.cls-6,.cls-8{stroke-width:6px;}.cls-3{fill:#1c0e0c;}.cls-12,.cls-4{fill:#c5dcdd;}.cls-13,.cls-14,.cls-17,.cls-5,.cls-6{stroke:#070707;}.cls-14,.cls-15,.cls-6{fill:none;}.cls-7{fill:#ffeff0;}.cls-8{fill:#f46f40;}.cls-10{fill:#fff;}.cls-11{fill:#070707;}.cls-13,.cls-16{fill:#fcbe9f;}.cls-14,.cls-17{stroke-width:4px;}.cls-17{fill:#f7f3ef;}</style></defs><g id="Layer_2" data-name="Layer 2"><rect id="BACKGROUND" class="cls-1" x="-4230.68" y="-207.41" width="9809.85" height="9381.84"/></g><g id="Layer_1" data-name="Layer 1"><g id="FIGURES"><rect class="cls-2" x="690.31" y="531.06" width="454.04" height="563.12" rx="36.27"/><rect class="cls-3" x="958.36" y="531.06" width="44.13" height="563.64"/><rect class="cls-4" x="2309.99" y="913.36" width="454.04" height="443.93" rx="36.27" transform="translate(5074.02 2270.65) rotate(-180)"/><rect class="cls-3" x="2451.86" y="913.36" width="44.13" height="444.34" transform="translate(4947.84 2271.06) rotate(-180)"/></g><g id="PLANT"><path class="cls-5" d="M2712.07,1764.18c43.1,25.74,210.86-461.64,202.9-491.63C2915,1272.55,2635.94,1718.71,2712.07,1764.18Z"/><path class="cls-6" d="M2678.54,1904.48s47.71-319.33,234.2-623.51"/><path class="cls-5" d="M2858.55,1653.42s-89.63,234.7-140.83,209.09C2667.46,1837.37,2858.55,1653.42,2858.55,1653.42Z"/><path class="cls-6" d="M2690.9,1904.48s111.22-175.26,167.67-250.25"/><path class="cls-5" d="M2728.7,1106.32s15,529.58-50.16,529.58C2602.16,1635.9,2728.7,1106.32,2728.7,1106.32Z"/><path class="cls-6" d="M2666.46,1904.48s6.46-470.43,62.24-794.55"/><path class="cls-5" d="M2508.09,1395.82s39.16,368.06,104.35,356.73C2678.54,1741.06,2508.09,1395.82,2508.09,1395.82Z"/><line class="cls-6" x1="2510.03" y1="1399.62" x2="2657.07" y2="1906.43"/><path class="cls-5" d="M2672.92,2075.24h0a89.88,89.88,0,0,1-89.87-89.88v-23.74a37.49,37.49,0,0,1,13.66-28.94l23.87-19.66a37.52,37.52,0,0,1,23.83-8.54h57a37.54,37.54,0,0,1,23.83,8.54l23.87,19.66a37.49,37.49,0,0,1,13.66,28.94v23.74A89.88,89.88,0,0,1,2672.92,2075.24Z"/><line class="cls-5" x1="2688.7" y1="1448.34" x2="2726.34" y2="1413.6"/><line class="cls-5" x1="2687.85" y1="1466.12" x2="2725.49" y2="1431.37"/><line class="cls-5" x1="2687.85" y1="1299.02" x2="2699.41" y2="1330.43"/><line class="cls-5" x1="2764.12" y1="1593.62" x2="2812.29" y2="1593.62"/><line class="cls-5" x1="2767.51" y1="1581.77" x2="2815.68" y2="1581.77"/><line class="cls-5" x1="2841.37" y1="1410.62" x2="2879.87" y2="1410.62"/><line class="cls-5" x1="2551.41" y1="1647.06" x2="2588" y2="1668.38"/><line class="cls-5" x1="2554.79" y1="1663.15" x2="2592.24" y2="1685.31"/><line class="cls-5" x1="2744.65" y1="1821.11" x2="2777.71" y2="1821.11"/></g><g id="WEB_PAGE" data-name="WEB PAGE"><g id="WEB_PAGE-2" data-name="WEB PAGE"><rect class="cls-5" x="1001.07" y="420.04" width="1449.03" height="1032.06" rx="37.12"/><line class="cls-5" x1="1001.07" y1="505.93" x2="2450.1" y2="505.93"/><rect class="cls-7" x="1198.93" y="455.41" width="28.32" height="28.32" rx="10.49"/><rect class="cls-7" x="1150.62" y="455.41" width="28.32" height="28.32" rx="10.49"/><rect class="cls-7" x="1102.3" y="455.41" width="28.32" height="28.32" rx="10.49"/><rect class="cls-4" x="1193.09" y="450.22" width="28.32" height="28.32" rx="10.49"/><rect class="cls-2" x="1144.77" y="450.22" width="28.32" height="28.32" rx="10.49"/><rect class="cls-8" x="1096.46" y="450.22" width="28.32" height="28.32" rx="10.49"/></g><g id="ICONS_PAGE" data-name="ICONS PAGE"><rect class="cls-6" x="1259.47" y="1149.26" width="949.37" height="189.06" rx="17.61"/><g id="DELIVERY"><rect class="cls-2" x="1935.32" y="1201.8" width="109.58" height="84.64"/><polygon class="cls-5" points="2091.3 1286.44 2044.9 1286.44 2044.9 1222.95 2068.1 1222.95 2091.3 1256.57 2091.3 1286.44"/><polygon class="cls-5" points="2053.3 1234.71 2065.14 1234.71 2076.99 1251.86 2053.3 1251.86 2053.3 1234.71"/><circle class="cls-5" cx="1967.64" cy="1287.27" r="11.9"/><circle class="cls-5" cx="2067.94" cy="1287.27" r="11.9"/><line class="cls-5" x1="2022.9" y1="1222.95" x2="1987.95" y2="1222.95"/><line class="cls-5" x1="2010.29" y1="1237.41" x2="1975.35" y2="1237.41"/><line class="cls-5" x1="2022.9" y1="1251.86" x2="1987.95" y2="1251.86"/></g><g id="GLOBE"><circle class="cls-5" cx="1833.9" cy="1249.79" r="49.22"/><line class="cls-5" x1="1834.11" y1="1200.72" x2="1834.11" y2="1299.16"/><path class="cls-5" d="M1842.81,1201s32.81,38.07,0,97.84"/><path class="cls-6" d="M1825.4,1201s-32.81,38.07,0,97.84"/><line class="cls-6" x1="1784.89" y1="1249.94" x2="1883.32" y2="1249.94"/><path class="cls-6" d="M1803.45,1288.45s29.78-17.9,60.65,0"/><path class="cls-6" d="M1803.45,1211.66s29.78,17.9,60.65,0"/></g><g id="SEARCH"><ellipse class="cls-7" cx="1691.34" cy="1239.68" rx="36.08" ry="34.3"/><ellipse class="cls-2" cx="1684.53" cy="1235.95" rx="37.14" ry="35.3"/><path class="cls-6" d="M1703.1,1218.3a24.09,24.09,0,0,1,0,35.3"/><path class="cls-2" d="M1710.75,1273.28l23,24.19a5.59,5.59,0,0,0,7.62.37h0a5,5,0,0,0,.4-7.26l-23-24.19a5.59,5.59,0,0,0-7.62-.37h0A5,5,0,0,0,1710.75,1273.28Z"/></g><g id="PRESENT"><rect class="cls-4" x="1514" y="1215.34" width="82.98" height="82.98" rx="6.64"/><rect class="cls-4" x="1500.93" y="1215.34" width="76.76" height="82.98" rx="6.64"/><line class="cls-6" x1="1540.56" y1="1302.82" x2="1540.56" y2="1210.12"/><line class="cls-6" x1="1496.85" y1="1256.63" x2="1600.65" y2="1256.63"/><path class="cls-6" d="M1553,1188.71h6.1a12.43,12.43,0,0,1,12.43,12.43v1.76a12.43,12.43,0,0,1-12.43,12.43h-18.53a0,0,0,0,1,0,0v-14.2a12.43,12.43,0,0,1,12.43-12.43Z"/><path class="cls-6" d="M1513.67,1194.31h16.93a9.82,9.82,0,0,1,9.82,9.82v1.39a9.82,9.82,0,0,1-9.82,9.82h-7.11a9.82,9.82,0,0,1-9.82-9.82v-11.21a0,0,0,0,1,0,0Z" transform="translate(3054.09 2409.65) rotate(180)"/><polyline class="cls-6" points="1556.04 1232.33 1540.41 1215.34 1530.86 1224.9"/></g><g id="PACK"><path class="cls-6" d="M1396.22,1187.93h1.54a10.87,10.87,0,0,1,10.87,10.87v14.84a0,0,0,0,1,0,0h-23.28a0,0,0,0,1,0,0V1198.8a10.87,10.87,0,0,1,10.87-10.87Z"/><path class="cls-6" d="M1388,1187.93h1.54a10.87,10.87,0,0,1,10.87,10.87v14.84a0,0,0,0,1,0,0h-23.28a0,0,0,0,1,0,0V1198.8A10.87,10.87,0,0,1,1388,1187.93Z"/><polygon class="cls-3" points="1432.69 1299.16 1407.55 1299.16 1418.03 1213.6 1422.21 1213.6 1432.69 1299.16"/><polygon class="cls-2" points="1418.03 1213.6 1407.55 1299.16 1347.85 1299.16 1358.32 1213.6 1418.03 1213.6"/></g></g><g id="BAG_PAGE" data-name="BAG PAGE"><rect class="cls-3" x="1682.09" y="800.89" width="237.12" height="237.12" rx="17.61"/><rect class="cls-5" x="1672.23" y="790.91" width="237.12" height="237.12" rx="17.61"/><g id="BAG"><path class="cls-9" d="M1832.78,1002.2H1765.3A42.36,42.36,0,0,1,1724,950.28l13.6-48.12a9.25,9.25,0,0,1,9-7.16h104.82a9.24,9.24,0,0,1,9,7.16l13.61,48.12A42.38,42.38,0,0,1,1832.78,1002.2Z"/><path class="cls-6" d="M1824.63,994.87h-67.48a42.38,42.38,0,0,1-41.29-51.93l13.61-48.11a9.24,9.24,0,0,1,9-7.17H1843.3a9.25,9.25,0,0,1,9,7.17l13.6,48.11A42.37,42.37,0,0,1,1824.63,994.87Z"/><path class="cls-6" d="M1831.74,879.14a55.47,55.47,0,0,1-.65,8.52h-80.4a55.47,55.47,0,0,1-.65-8.52c0-26.35,18.28-47.7,40.84-47.7S1831.74,852.79,1831.74,879.14Z"/><path class="cls-6" d="M1850.05,890.58c-1.38,31.4-27.9,56.45-59.17,56.45-30.43,0-57.77-25-59.15-56.44a9.22,9.22,0,0,1,6.74-2.93h104.82A9.3,9.3,0,0,1,1850.05,890.58Z"/><rect class="cls-6" x="1786.81" y="937.82" width="8.15" height="19.19"/></g><circle class="cls-4" cx="1862.36" cy="793.82" r="26.21"/><polyline class="cls-6" points="1852.71 793.06 1861.31 805.21 1872.02 782.43"/></g><g id="SHOES_PAGE" data-name="SHOES PAGE"><rect class="cls-6" x="1672.23" y="642.76" width="539.05" height="104.52" rx="14.5"/><path class="cls-5" d="M1830.65,729.58h-74.17S1736.19,697,1729.26,697c-4,0-5.64,32.59-5.64,32.59H1719s-10.8-66.56,1.17-70.37c7.8-2.48,28.92,4.12,34.72,30.25,4.9,22,33.07,25.95,36.2,11.43C1791.09,700.89,1829.33,712.16,1830.65,729.58Z"/><path class="cls-5" d="M2020.92,713.6c-.13,1.55-2.92,8.93-2.92,8.93l-142.58-4.83v-8a72.62,72.62,0,0,1,6.93-29.86c3.71-7.73,8.84-5.8,8.84-5.8s13.94,13.63,29.58,13.63a7.85,7.85,0,0,0,6.72-3.92,18.58,18.58,0,0,0,2.13-4.64,36,36,0,0,0,1.37-6.54,5.88,5.88,0,0,1,8.51-4.49c6.14,3.16,13.59,10.22,33.55,21,1,.54,2,1.1,3.1,1.66C2000.43,703.53,2020.66,698.78,2020.92,713.6Z"/><path class="cls-2" d="M2004.89,729.58c4.13,0,9.16-1.87,11.87-4.89a17,17,0,0,0,3.71-14.47h-.11a13.43,13.43,0,0,1-12.87,10.91l-123.61-3.63a9.18,9.18,0,0,1-8.46-6.39v8.3c0,5.62,4.08,10.17,9.1,10.17Z"/><path class="cls-2" d="M1978.48,692c-30.88-10.56-46.33-15.34-48.86-12.8a36,36,0,0,0,1.37-6.54,5.88,5.88,0,0,1,8.51-4.49C1945.64,671.28,1955.91,680.66,1978.48,692Z"/><path class="cls-6" d="M1944.78,678.06l5.6-8.52a4.4,4.4,0,0,1,6.27-1.14h0a4.4,4.4,0,0,1,1.26,5.66l-.75,1.37"/><path class="cls-6" d="M1959.18,682.47l4.1-6.13a3.85,3.85,0,0,1,5.5-.87h0a3.85,3.85,0,0,1,1,5l-1.48,2.68"/><path class="cls-6" d="M1979.85,689c1.64-2.23,1.24-4.79-.4-6h0a4.06,4.06,0,0,0-5.8,1l-2.51,4.11"/><circle class="cls-8" cx="2164.04" cy="642.76" r="22.42"/><line class="cls-5" x1="2156.67" y1="650.41" x2="2171.41" y2="635.11"/><line class="cls-5" x1="2171.41" y1="650.41" x2="2156.67" y2="635.11"/><path class="cls-5" d="M2063.82,693.83s-16,35.75,7.24,35.75h107.88s4.34-17.51-23.68-22c-3.9-.63-15-2.76-15-2.76s3.46,14-21.2,12.89S2083.25,695.59,2063.82,693.83Z"/></g><g id="SHIRT_PAGE" data-name="SHIRT PAGE"><rect class="cls-3" x="1275.24" y="658.73" width="379.27" height="379.27" rx="17.61"/><rect class="cls-2" x="1259.47" y="642.76" width="379.27" height="379.27" rx="17.61"/><path class="cls-3" d="M1590.19,796l-50.35,42.65V952.92H1372.2V838.69L1321.86,796,1360.49,748c11.71-10.19,29.54-11.79,42.49-11.79H1513.8c26,0,32.59,4.89,39.34,10.21Z"/><path class="cls-5" d="M1586,788.25l-51.26,43.41V948H1364V831.66l-51.25-43.41,39.32-49c11.93-10.38,30.09-12,43.27-12h112.83c26.47,0,33.17,5,40,10.39Z"/><line class="cls-5" x1="1364.02" y1="831.66" x2="1364.02" y2="790.52"/><line class="cls-5" x1="1534.66" y1="832.05" x2="1534.66" y2="790.91"/><line class="cls-5" x1="1449.36" y1="765.17" x2="1449.36" y2="947.97"/><path class="cls-5" d="M1502.37,727.29h-38.43a1.72,1.72,0,0,0-1.64,1.16l-12.94,36.72-13.62-36.42a2.25,2.25,0,0,0-2.11-1.46h-37.88l18.41-15.67a22.76,22.76,0,0,1,14.76-5.44h40.28a22.78,22.78,0,0,1,14.77,5.44Z"/><path class="cls-5" d="M1422.08,711.73l13.11,15.56-15,21.41-24.46-21.41,19.16-16.17A5.09,5.09,0,0,1,1422.08,711.73Z"/><path class="cls-5" d="M1476.05,711.73l-13.12,15.56,15,21.41,24.46-21.41-19.16-16.17A5.09,5.09,0,0,0,1476.05,711.73Z"/><path class="cls-5" d="M1475,793.82h34a0,0,0,0,1,0,0v32.25a6.33,6.33,0,0,1-6.33,6.33h-21.34a6.33,6.33,0,0,1-6.33-6.33V793.82A0,0,0,0,1,1475,793.82Z"/><circle class="cls-3" cx="1438.92" cy="778.58" r="4.13"/><circle class="cls-3" cx="1438.92" cy="810.19" r="4.13"/><circle class="cls-3" cx="1438.92" cy="841.8" r="4.13"/><circle class="cls-3" cx="1438.92" cy="873.41" r="4.13"/><circle class="cls-3" cx="1438.92" cy="905.02" r="4.13"/><circle class="cls-5" cx="1570.02" cy="650.58" r="41.1"/><path class="cls-3" d="M1559.43,632.2c-5.27,0-8.82,4.08-8.82,10.14,0,6.45,3.24,10.31,8.66,10.31s8.74-4,8.74-10.52C1568,636,1564.73,632.2,1559.43,632.2Zm-.07,16.61c-3.62,0-4.16-4.09-4.16-6.53,0-4,1.48-6.24,4.16-6.24,3.41,0,4.12,3.34,4.12,6.15C1563.48,646.59,1562.09,648.81,1559.36,648.81Z"/><path class="cls-3" d="M1581.87,646.77c-5.18,0-8.81,4.17-8.81,10.13,0,6.36,3.32,10.31,8.66,10.31s8.74-4,8.74-10.52C1590.46,650.57,1587.17,646.77,1581.87,646.77Zm-.06,16.6c-3.62,0-4.16-4.08-4.16-6.52,0-4,1.51-6.25,4.16-6.25,3.4,0,4.11,3.35,4.11,6.15C1585.92,661,1584.42,663.37,1581.81,663.37Z"/><polygon class="cls-3" points="1584.33 632.66 1561.37 666.84 1556.79 666.84 1579.73 632.66 1584.33 632.66"/></g><g id="PRESENT_PAGE" data-name="PRESENT PAGE"><rect class="cls-3" x="1978.76" y="800.89" width="237.12" height="237.12" rx="17.61"/><rect class="cls-4" x="1968.9" y="790.91" width="237.12" height="237.12" rx="17.61"/><g id="PRESENT-2" data-name="PRESENT"><rect class="cls-10" x="2037.77" y="882.09" width="121.4" height="107.35" rx="6.64"/><path class="cls-6" d="M2159.3,884.54v93.75a11.13,11.13,0,0,1-11.14,11.14h-27a11.14,11.14,0,0,0,11.14-11.14V884.54a11.15,11.15,0,0,0-11.14-11.16h27A11.15,11.15,0,0,1,2159.3,884.54Z"/><path class="cls-6" d="M2132.33,884.54v93.75a11.14,11.14,0,0,1-11.14,11.14h-85A11.14,11.14,0,0,1,2025,978.29V884.54a11.16,11.16,0,0,1,11.15-11.16h85A11.15,11.15,0,0,1,2132.33,884.54Z"/><line class="cls-6" x1="2080.4" y1="994.64" x2="2080.4" y2="865"/><line class="cls-6" x1="2020.36" y1="931.13" x2="2163.35" y2="931.13"/><path class="cls-6" d="M2097.78,836.15h8.53a17.39,17.39,0,0,1,17.39,17.39V856a17.39,17.39,0,0,1-17.39,17.39H2080.4a0,0,0,0,1,0,0V853.53A17.39,17.39,0,0,1,2097.78,836.15Z"/><path class="cls-6" d="M2042.8,844h23.67a13.73,13.73,0,0,1,13.73,13.73v1.95a13.73,13.73,0,0,1-13.73,13.73h-9.94a13.73,13.73,0,0,1-13.73-13.73V844A0,0,0,0,1,2042.8,844Z" transform="translate(4123 1717.37) rotate(180)"/><polyline class="cls-6" points="2102.05 897.15 2080.2 873.39 2066.83 886.76"/></g></g></g><g id="ABSTRACT_ELEMENTS" data-name="ABSTRACT ELEMENTS"><circle class="cls-6" cx="368.3" cy="800.89" r="38.59"/><circle class="cls-6" cx="464.41" cy="635.11" r="12.23"/></g><g id="PACKAGES"><path class="cls-6" d="M1788.22,1668.12h4.7a33.1,33.1,0,0,1,33.1,33.1v32a0,0,0,0,1,0,0h-70.89a0,0,0,0,1,0,0v-32A33.1,33.1,0,0,1,1788.22,1668.12Z"/><path class="cls-6" d="M1812.13,1668.12h4.7a33.1,33.1,0,0,1,33.1,33.1v32a0,0,0,0,1,0,0H1779a0,0,0,0,1,0,0v-32A33.1,33.1,0,0,1,1812.13,1668.12Z"/><polygon class="cls-3" points="1956.46 2075.18 1861.51 2075.18 1901.76 1733.16 1916.21 1733.16 1956.46 2075.18"/><polygon class="cls-6" points="1901.76 1733.16 1861.51 2075.18 1640.86 2075.18 1681.12 1733.16 1901.76 1733.16"/><path class="cls-10" d="M1873.6,1837.58h-32.32l4.12-47.07a18,18,0,0,1,17.57-16.16h0a14.57,14.57,0,0,1,14.75,16.16Z"/><path class="cls-6" d="M1870.76,1834.74h-32.32l4.12-47.07a18,18,0,0,1,17.57-16.17h0a14.58,14.58,0,0,1,14.75,16.17Z"/><ellipse class="cls-6" cx="1858.98" cy="1784.66" rx="3.64" ry="3.34" transform="translate(-717.99 1780.89) rotate(-43.75)"/><path class="cls-6" d="M1859.1,1784.16l4.6-53.43a7.16,7.16,0,0,1,7.13-6.54h0a7.16,7.16,0,0,1,7.16,7.16"/><path class="cls-11" d="M1857,1817.73a4.07,4.07,0,0,0,2.19-1.09,3,3,0,0,0,.9-1.9,2.13,2.13,0,0,0-.56-1.81,5.33,5.33,0,0,0-2-1.08l-1.66-.49a15.48,15.48,0,0,1-2.91-1.11,4.52,4.52,0,0,1-1.81-1.74,4.85,4.85,0,0,1-.49-2.9,5.61,5.61,0,0,1,1.8-3.79,7.19,7.19,0,0,1,4.4-1.71h1.7a7.53,7.53,0,0,1,2.41.59,4.26,4.26,0,0,1,1.68,1.34,5.33,5.33,0,0,1,.81,1.41,3.29,3.29,0,0,1,.21,1.33,1.86,1.86,0,0,1-1.82,1.65,1.5,1.5,0,0,1-1.58-1.42,2.71,2.71,0,0,0-1.94-2.23l-1.7-.06a5.26,5.26,0,0,0-1.84.89,2.32,2.32,0,0,0-.78,1.66,1.94,1.94,0,0,0,.45,1.61,5.09,5.09,0,0,0,1.72,1l1.66.49c1.08.31,1.94.58,2.58.83a5,5,0,0,1,1.67,1.09,4.43,4.43,0,0,1,1.12,1.77,5.33,5.33,0,0,1,.26,2.25,6.34,6.34,0,0,1-1,2.86,6.46,6.46,0,0,1-2.31,2.18,8,8,0,0,1-3.4,1l-1.71,0a8.2,8.2,0,0,1-2.68-.74,6,6,0,0,1-1.84-1.4,5.19,5.19,0,0,1-1-1.75,4.41,4.41,0,0,1-.22-1.78,1.72,1.72,0,0,1,.6-1.16,1.86,1.86,0,0,1,1.3-.52,1.67,1.67,0,0,1,1,.29,1.23,1.23,0,0,1,.5.79,15.07,15.07,0,0,0,.49,1.68,2.74,2.74,0,0,0,.72,1.07,3.23,3.23,0,0,0,1.38.74Z"/><path class="cls-11" d="M1855.72,1822.37h-.07a.7.7,0,0,1-.64-.77l2-23.26a.71.71,0,0,1,.77-.64.72.72,0,0,1,.65.77l-2,23.25A.71.71,0,0,1,1855.72,1822.37Z"/><path class="cls-6" d="M1708.12,1780.39h3.41a24,24,0,0,1,24,24v23.18a0,0,0,0,1,0,0H1684.1a0,0,0,0,1,0,0V1804.4A24,24,0,0,1,1708.12,1780.39Z"/><path class="cls-6" d="M1725.47,1780.39h3.41a24,24,0,0,1,24,24v23.18a0,0,0,0,1,0,0h-51.44a0,0,0,0,1,0,0V1804.4a24,24,0,0,1,24-24Z"/><polygon class="cls-5" points="1830.19 2075.75 1761.3 2075.75 1790.51 1827.59 1800.99 1827.59 1830.19 2075.75"/><polygon class="cls-5" points="1790.51 1827.59 1761.3 2075.75 1601.2 2075.75 1630.41 1827.59 1790.51 1827.59"/></g><g id="SHOPPING_CART" data-name="SHOPPING CART"><rect class="cls-4" x="386.27" y="1271.89" width="327.86" height="363.35" rx="22.31"/><path class="cls-6" d="M662,1306.26a25.59,25.59,0,0,0-43.68,18.09v74.53h51.17v-74.53A25.51,25.51,0,0,0,662,1306.26Zm-18.09,18.85a5.52,5.52,0,1,1,5.52-5.52A5.53,5.53,0,0,1,643.94,1325.11Z"/><path class="cls-5" d="M658.56,1301.5a25.58,25.58,0,0,0-43.68,18.09v74.53h51.18v-74.53A25.48,25.48,0,0,0,658.56,1301.5Zm-18.09,18.85a5.53,5.53,0,1,1,5.52-5.53A5.53,5.53,0,0,1,640.47,1320.35Z"/><path class="cls-6" d="M640.47,1312.74v-44.45a12.79,12.79,0,0,1,12.79-12.79h0a12.79,12.79,0,0,1,12.8,12.79v1.28"/><path class="cls-11" d="M650.87,1358.19a7.85,7.85,0,0,0-2-2.8,8.74,8.74,0,0,0-2.79-1.72q-1.56-.59-4.2-1.32l-.12,0v-8.81h.12a4.81,4.81,0,0,1,3.38,3.53,2.64,2.64,0,0,0,2.7,2.25,2.58,2.58,0,0,0,1.88-.77,2.51,2.51,0,0,0,.78-1.84,5.29,5.29,0,0,0-.52-2.11,9.28,9.28,0,0,0-1.48-2.23,7.77,7.77,0,0,0-2.84-2.12,13.28,13.28,0,0,0-3.9-.94h-.12v-2.69a1.3,1.3,0,0,0-2.6,0v2.7a10.34,10.34,0,0,0-6.7,2.71,9.11,9.11,0,0,0-1.14,10.59,7.91,7.91,0,0,0,3.1,2.75,26.65,26.65,0,0,0,4.74,1.75V1367a5.8,5.8,0,0,1-2.26-1.16,5.22,5.22,0,0,1-1.29-1.69c-.28-.62-.61-1.51-1-2.67a2.25,2.25,0,0,0-.91-1.25,2.81,2.81,0,0,0-1.62-.45,2.63,2.63,0,0,0-2,.82,2.58,2.58,0,0,0-.8,1.84,7.42,7.42,0,0,0,.59,2.81,9.35,9.35,0,0,0,1.84,2.77,10.6,10.6,0,0,0,3.1,2.22,13.93,13.93,0,0,0,4.33,1.16v2a1.3,1.3,0,1,0,2.6,0v-2.08h.12a12,12,0,0,0,5.25-1.59,9,9,0,0,0,3.35-3.46,9.37,9.37,0,0,0,1.13-4.53A8.84,8.84,0,0,0,650.87,1358.19ZM636.3,1350a3.95,3.95,0,0,1,.07-5.17,7.42,7.42,0,0,1,2.76-1.4v8.13A8.27,8.27,0,0,1,636.3,1350Zm8.87,15.46a5.87,5.87,0,0,1-3.32,1.73h-.12v-9.34l.12,0a9.4,9.4,0,0,1,3.35,1.71,3.64,3.64,0,0,1,1.14,2.86A4.33,4.33,0,0,1,645.17,1365.46Z"/><path class="cls-3" d="M355.8,1394.39H311.66s-42.4-37.55-60.93-59.7a85.61,85.61,0,0,1-6.93-9.64,21,21,0,0,1,17.72-32H262C306.8,1293,355.83,1374.2,355.8,1394.39Z"/><path class="cls-1" d="M380.15,1394.39H349.09s-29.83-26.42-42.87-42a59.88,59.88,0,0,1-4.87-6.78,14.76,14.76,0,0,1,12.47-22.52h.33C345.67,1323.09,380.16,1380.19,380.15,1394.39Z"/><path class="cls-2" d="M287.82,1250.64c74.3-.78,100.14,105.39,98.53,143.75H355.8c0-20.19-49-101.35-93.8-101.35-15.89,0-25.26,14.16-20.47,27C241.53,1320,210.74,1251.45,287.82,1250.64Z"/><path class="cls-2" d="M515,1379.33c5.24-12.54-1.81-27-14.86-30.93-60.51-18.25-122.38,46-122.38,46H362.62s31.75-93.59,125.34-79.68C508.45,1317.76,535.35,1337.49,515,1379.33Z"/><path class="cls-3" d="M515,1379.54c-2.81,6.58-6.25,12.73-8.7,14.85h-34.4s8.23-2.79,16.19-14.85c9.67-14.65,5.19-32.77-8.05-34a77.59,77.59,0,0,1,20.19,2.88C513.31,1352.36,520.36,1367,515,1379.54Z"/><rect class="cls-3" x="254.05" y="1391.23" width="323.56" height="362.32" rx="49.37"/><rect class="cls-5" x="202.97" y="1391.23" width="314.16" height="362.32" rx="49.37"/><g id="SHOPPING_CART-2" data-name="SHOPPING CART"><path class="cls-6" d="M941.3,1324.79H877.19a73.23,73.23,0,0,0-70,51.61l-103,333.21a100.92,100.92,0,0,1-96.42,71.11H251.24a63.59,63.59,0,0,0-61.75,48.38l-13,69.1a51.48,51.48,0,0,0,50,63.8H661.16"/><path class="cls-6" d="M608.09,1780.72H277.39A100.92,100.92,0,0,1,181,1709.61l-66.09-266.48h671.7l-82,266.37A100.94,100.94,0,0,1,608.09,1780.72Z"/><line class="cls-6" x1="388.28" y1="1780.72" x2="283.9" y2="1443.13"/><line class="cls-6" x1="476.41" y1="1780.72" x2="580.79" y2="1443.13"/><line class="cls-6" x1="737.79" y1="1600.93" x2="155.52" y2="1600.93"/><circle class="cls-12" cx="612.28" cy="2044.65" r="50.99"/><circle class="cls-12" cx="266.09" cy="2044.65" r="50.99"/><circle class="cls-6" cx="601.69" cy="2035.68" r="50.99"/><circle class="cls-6" cx="255.49" cy="2035.68" r="50.99"/></g><rect class="cls-8" x="587.55" y="1651.15" width="80.35" height="102.39" rx="14.49"/></g><rect class="cls-3" x="2145.57" y="1169.13" width="164.42" height="36.25"/></g><g id="Layer_3" data-name="Layer 3"><g id="WOMAN"><g id="LEGS"><g id="RIGHT_LEG" data-name="RIGHT LEG"><path id="LEG" class="cls-13" d="M2288.37,2041.17c5.63,14.69,10.31,36.54-9.41,36.54H2172.33s-.31-16.25,24.59-18.42c42.15-3.67,55.41-37.08,56-52.89,1.21-85.18-32-345.09-37.53-395.36a614.58,614.58,0,0,0,106.91-12.73c-18.07,61.19,20.83,111.39,23.86,172.91,3,61.35-45.89,197.34-60.05,243.86C2284.94,2023.38,2285.84,2034.54,2288.37,2041.17Z"/><path id="SHOE" class="cls-8" d="M2288.37,2041.17s16.31,36.54-7.4,36.54H2170.7s-4.43-13.82,24.2-18.42c4-.63,15.38-2.82,15.38-2.82s-3.54,10.22,21.67,9.11S2268.51,2043,2288.37,2041.17Z"/><path id="SHADOW" class="cls-3" d="M2319.22,1611.33a534.89,534.89,0,0,1-101.73,18.12h0l-2.13-18.41a614.57,614.57,0,0,0,106.9-12.73Z"/></g><g id="LEFT_LEG" data-name="LEFT LEG"><path id="LEG-2" data-name="LEG" class="cls-13" d="M2001.7,1576a510.51,510.51,0,0,0,110,29.09l-32.6,53.29c0,10.55,46.42,59.4,59.19,103,15.42,52.76.81,199.66,5.68,223.2,3.05,14.71-12.24,45.32-27.19,59.49-9,8.51-20.42,5.34-20.42,5.34s24.17-48.33,12.71-85.93c-42.24-138.72-125-297-125-319,0-11.88,6.09-34.38,15.15-61.25Z"/><path id="SHOE-2" data-name="SHOE" class="cls-8" d="M2142.3,1987.09c6.24-3.37,27.59,15.5,26.5,26l-51.63,63.85h-52.92s-5.44-22,32.07-27.42S2118.13,2000.17,2142.3,1987.09Z"/><path id="SHADOW-2" data-name="SHADOW" class="cls-3" d="M2001.7,1576a510.51,510.51,0,0,0,110,29.09L2099.59,1625c-33.73-7.14-67.84-21.93-100.39-41.64Z"/></g></g><g id="DRESS"><path id="DRESS-2" data-name="DRESS" class="cls-8" d="M2363,1587.79s-181.75,61.68-368.41-14.6c0,0,136.35-303.54,147.7-326.26s10.57-59.24,10.57-59.24-5.7-58.4-22.74-77.88-26.77-41.39-17.85-69,19.45-82,19.45-82l37.36-12.18,131.74-2.44s16.3,19,12.79,54.71c-3,31-41.9,118.32-8.18,188.76,15.41,25.15,69.68,70.48,76.24,149.76C2390.16,1439.72,2363,1587.79,2363,1587.79Z"/></g><path class="cls-13" d="M2158.77,989c-.71-27.78-22.42-44.28-44.37-16.82-15.54,19.42-55.62,87.94-78.54,131.79-22.56-34.21-72.61-93.49-100.45-119.58.94-11.52-4.62-43.38-8-45.76-3.73-2.63-21.32-28.36-21.32-28.36s-6.48,3.48-.48,14.13c7,12.36,5.45,16.28,5.45,16.28s-7.86,1.29-8.81,6.48-7.08,1.54-9.89,9.42c-1.64,4.61-5.39,6.4-4.34,11,1,4.31,22.37,22.28,33.38,25.39,15.23,45.65,62.58,150.16,107.11,177.82,9.61,4.42,25.68-.53,46.27-25C2160.62,1043.86,2159.38,1012.46,2158.77,989Z"/><g id="HEAD"><g id="NECK"><path id="NECK-2" data-name="NECK" class="cls-13" d="M2259.08,841.87c-.81,21.1-3.91,53.77,46.29,110.38,26.92,30.35-55,39.12-98.87,16.18-30.17-15.76-37.41-21.77-37.41-21.77s28.36-2.53,39.4-31c7.62-19.65.05-42-3.77-73.81Z"/><path id="SHADOW-3" data-name="SHADOW" class="cls-3" d="M2246.16,846c.29,2.7-5.27,51.64-34.85,60.61,2.86-15.6-4.19-42-5.77-60.64Z"/></g><g id="HAIR"><path class="cls-14" d="M2287.57,848.67c6.76,32.49,102.81,23.6,109.24,103.36"/><path class="cls-3" d="M2294.55,1010.4c-35.55-16.28-85.13-64.74-36.16-139.08-5.61-2.09-11.52-6-13.35-13.13-3.76-14.81-54.51-32.23-56.83-63.29-.78-10.41,7.08-35.53,60.4-32.64,53.08,2.89,57.9,66.7,41,85.92a.34.34,0,0,0-.08.09C2297,884.5,2398.75,884.7,2384.18,974,2380.12,998.94,2342,1032.12,2294.55,1010.4Z"/></g><path id="HEAD-2" data-name="HEAD" class="cls-13" d="M2242.78,857.94c-.13,2.69-5.18,20.23-40.9,28.61-6.48,1.53-23.57,2-24-2-.48-4.7-3.36-23.26-3.63-33.19-.08-3.06-10.15-9.92-8.31-12.14,5.65-6.82,15.64-14.65,15.86-17.46,1.67-21.12,9.59-32.89,17.36-32.47,4.44.24-1.2,39.42,43.63,52.23,0,0,12.74-6.61,14.64.37S2242.78,857.94,2242.78,857.94Z"/></g></g><g id="LEGS-2" data-name="LEGS"><g id="SHOES"><path class="cls-3" d="M1194.42,2034.09s-16.56,34.43-5.19,46.88h146.06s-.81-24.11-36-27.91c-31.57-3.41-50.8-19-50.8-19Z"/><rect class="cls-3" x="1184.99" y="2080.97" width="153.95" height="8.66" rx="1.99"/><path class="cls-6" d="M1258,2051.91l4.91-11.07a5.21,5.21,0,0,1,7.12-2.56h0a5.23,5.23,0,0,1,2.58,6.39l-.68,1.87"/><path class="cls-6" d="M1272.43,2057.06l4.75-11.35a4.56,4.56,0,0,1,6.23-2.23h0a4.56,4.56,0,0,1,2.25,5.58l-.41,1.57"/><path class="cls-6" d="M1287.06,2061.68l3.12-11.47a4.56,4.56,0,0,1,5.88-3h0c2.16.76,3.58,2.84,3.25,5.88"/></g><g id="SHOES-2" data-name="SHOES"><path class="cls-3" d="M934.33,2034.09s-16.56,34.43-5.19,46.88h137.91s-.82-24.11-36-27.91c-31.58-3.41-50.8-19-50.8-19Z"/><rect class="cls-3" x="924.9" y="2080.97" width="145.79" height="8.66" rx="1.99"/><path class="cls-6" d="M989.71,2051.91l4.91-11.07a5.23,5.23,0,0,1,7.13-2.56h0a5.22,5.22,0,0,1,2.57,6.39l-.68,1.87"/><path class="cls-6" d="M1004.19,2057.06l4.75-11.35a4.56,4.56,0,0,1,6.23-2.23h0a4.57,4.57,0,0,1,2.25,5.58l-.41,1.57"/><path class="cls-6" d="M1018.81,2061.68l3.13-11.47a4.56,4.56,0,0,1,5.88-3h0c2.16.76,3.58,2.84,3.25,5.88"/></g><path id="PANTS" class="cls-4" d="M1235.15,1290.27c11,41,14.78,178.81,18.34,381.89,2.59,147.35,15.39,357.12,15.39,357.12s-33.66,14.62-93.16,3.26c0,0-57-187.8-36.69-324.61,3.24-21.92-27.57-151.75-27.57-151.75S988.8,1999,988.8,2035.24c0,0-47.81,9.19-76.21,0,0,0-42.9-201.73,25.16-319.22C974.4,1652.75,966,1421.35,967,1402.7c3.37-65.78,35.56-115.32,35.56-115.32Z"/><path id="SHADOW-4" data-name="SHADOW" class="cls-6" d="M1111.46,1557.81c-4.06-17.86-25.21-147-30.89-151.91s-15.42-11.36-21.91-17.86"/><path id="SHADOW-5" data-name="SHADOW" class="cls-3" d="M1239,1310.29c-85.12,45.36-214.35,23.16-245.16-7.17a176.16,176.16,0,0,1,8.7-15.74l232.63,2.89A176.16,176.16,0,0,1,1239,1310.29Z"/></g><g id="LEFT_HAND" data-name="LEFT HAND"><path id="HAND" class="cls-13" d="M1007.66,1212.5a104,104,0,0,1-2.85,13c-33.57-.54-63.25-5.45-77.5-19.13-41.46-39.8-10.3-137.11-8.35-143,14.51,9.65,35.38,20.43,65.12,30.41C997.49,1147.84,1009.75,1198.11,1007.66,1212.5Z"/><path id="SHADOW-6" data-name="SHADOW" class="cls-3" d="M919,1063.35c14.51,9.65,35.38,20.43,65.12,30.41,3.09,12.47,6.12,24.72,8.93,36.39-40-17.87-60.28-39.18-77.78-53.75Z"/></g><g id="RIGHT_HAND" data-name="RIGHT HAND"><path class="cls-13" d="M1535,884.72c-2-2.61-5.38-3.14-6.06-4.22s-.45-3.8-2.45-5.55-4.93-1.48-6.18-2.5-.4-4-2.78-6.55-5.78-2.23-6.54-3,12.51-23.88,7.46-26.87-30.9,29.78-36,37.46c-10.5,15.83-10.6,35.7-12,42.82a1.87,1.87,0,0,0-.3.26c-4.05,4.87-99.84,99.83-116.88,131.49l-15.17-23L1251,1086.75s63.31,92,119.3,72.53c53-18.43,113.27-197.51,124.39-222.16,18.28-3.61,33.57-23.92,38.55-33.18C1539.71,892,1537,887.32,1535,884.72Z"/><path id="SHADOW-7" data-name="SHADOW" class="cls-3" d="M1342.33,1031.53a172,172,0,0,1-71.19,80.19,270.29,270.29,0,0,1-20.12-25l87.07-61.64Z"/></g><path id="T-SHIRT" class="cls-5" d="M984.08,1093.76c13.41,54.08,25.67,104.35,23.58,118.74-4.38,30.19-28.64,67.38-17.27,76,31.87,24.31,134.74,49.56,253.05,8,0,0-15.15-28.56,1.23-142.63,2.42-16.86,5.61-40.33,8.85-66.14l.07,0c53.15-18.68,94.34-74.18,94.34-74.18s-25.84-68.62-54.36-91.74c-18-14.6-111.25-40.76-118.87-45.2l-110.65-1.47c-7.38.62-86.42,25.67-118.91,49.6-29.57,21.78-57.29,108.7-57.29,108.7S903.12,1066.56,984.08,1093.76Z"/><g id="NECK-3" data-name="NECK"><path class="cls-13" d="M1060.74,875.82c8.83-4.11,39.66-35.82,34.8-74.11l68.57,7.8s6.85,47.58,18.21,71.6a287.2,287.2,0,0,1-73.64,8.73C1067.77,889.32,1060.74,875.82,1060.74,875.82Z"/><path class="cls-3" d="M1173.69,857.22c-6.89-.8-21.58-3.81-29.37-11-12.69-11.7-30.5-37.56-30.67-42.29l50.46,5.58S1168.35,833.37,1173.69,857.22Z"/></g><path id="FACE" class="cls-13" d="M1130.21,804.29s10.79,19.23,21.85,22,36.41.61,44.12-4c4.76-2.84,3.32-26.43,2.41-35-.18-1.65,12.84-7.16,12-12.19-.89-5.34-15.65-18-16.95-25.09-3.82-20.81-9-40.46-10.7-41.19-2.76-1.21-46.17,1.55-51.3,13.4s1.33,48.54,1.33,48.54-14-8.19-18.2,2.75C1108.55,789.54,1130.21,804.29,1130.21,804.29Z"/><g id="HAIR-2" data-name="HAIR"><path class="cls-15" d="M1211.36,695.57c15.08,12.18-7.59,62.52-53.56,26.78"/><path class="cls-15" d="M1047,734.44c8.86-15.81,26.28-2.59,26.28-2.59"/><path class="cls-3" d="M1197.39,784.53s-17,13.83-26.59,15-17.55-27.65-20.51-40.39c-6.64-29.58-5.86-41.4,21.63-31.31,36.26,13.31,43.52-31.54,29.53-39.09-8.91-4.8-13.23-3.31-25.79,3-14,7.08-43.65-16.36-78.91-6-33.11,9.72-28.06,43.14-28.06,43.14s-13.06-2.37-15.43,16.72c-1.87,15.1,19.08,41.85,35.23,71.77,4.53,8.39,26.49,3.38,31.9-5.08,0,0,7.24-12.35-1.82-27.34-7.43-12.28,5.36-22.19,18.1-11.48-1.87,8.59-5.92,31.79,1.75,43.76,11.47,17.9,70.59,20.57,72.06,10.62S1197.39,784.53,1197.39,784.53Z"/></g><circle class="cls-16" cx="2243.79" cy="841.22" r="14.65"/><path class="cls-14" d="M2238.22,850.16s-1.69-5.77-.13-11a10.71,10.71,0,0,1,8.17-7.6"/><line class="cls-14" x1="2246.26" y1="842.97" x2="2238.09" y2="839.18"/><circle class="cls-17" cx="2254.67" cy="857.64" r="6.81"/><ellipse class="cls-3" cx="2189.69" cy="823.06" rx="3.33" ry="4.88"/><path class="cls-14" d="M2177.94,857.64s7.54.67,11.75-4.43"/><path class="cls-13" d="M1144.74,803a25.94,25.94,0,0,1-13.87-50"/><path class="cls-13" d="M1122,775s10.35-6.73,18.11,5.17"/><line class="cls-13" x1="1133.63" y1="774.13" x2="1128.3" y2="784.53"/><ellipse class="cls-3" cx="1180.73" cy="757.17" rx="4.12" ry="6.21" transform="translate(-123.24 240.36) rotate(-11.05)"/><rect class="cls-3" x="1163.98" y="739.65" width="18.05" height="7.24" rx="3.62" transform="translate(-212.3 646.77) rotate(-28.38)"/><line class="cls-6" x1="956.89" y1="990.89" x2="984.08" y2="1093.76"/><path class="cls-6" d="M1291.61,930.59s-58.09,3.54-66.95,66.5"/></g></svg>