<svg xmlns="http://www.w3.org/2000/svg" viewBox="0 0 3086.88 2459.87"><defs><style>.cls-1,.cls-2{fill:#f4f1ed;}.cls-12,.cls-2,.cls-3,.cls-8{stroke:#070707;}.cls-12,.cls-16,.cls-18,.cls-2,.cls-3,.cls-5,.cls-6,.cls-7,.cls-8,.cls-9{stroke-linecap:round;stroke-linejoin:round;}.cls-12,.cls-13,.cls-15,.cls-16,.cls-18,.cls-2,.cls-3,.cls-5,.cls-6,.cls-7,.cls-8,.cls-9{stroke-width:6px;}.cls-3{fill:#faf9f7;}.cls-4{fill:#1c0e0c;}.cls-5{fill:#c5dcdd;}.cls-18,.cls-5,.cls-6,.cls-7,.cls-9{stroke:#000;}.cls-10,.cls-6{fill:#ffbf00;}.cls-7{fill:#f46f40;}.cls-13,.cls-15,.cls-8{fill:none;}.cls-9{fill:#efaf00;}.cls-11{fill:#eae5df;}.cls-12{fill:#fffbf8;}.cls-13{stroke:#ffc3d5;}.cls-13,.cls-15{stroke-miterlimit:10;}.cls-14{font-size:12px;font-family:MyriadPro-Regular, Myriad Pro;}.cls-15{stroke:#4b556a;}.cls-16,.cls-19{fill:#c48270;}.cls-16{stroke:#0f0f0f;}.cls-17{fill:#e38e32;}.cls-18{fill:#f9a09b;}</style></defs><g id="Layer_2" data-name="Layer 2"><rect id="BACKGROUND" class="cls-1" x="-381.85" y="-207.41" width="9809.85" height="9381.84"/></g><g id="Layer_1" data-name="Layer 1"><g id="WEB_PAGES" data-name="WEB PAGES"><g id="WEB_PAGE" data-name="WEB PAGE"><rect class="cls-2" x="554.85" y="481.46" width="2020.98" height="1554.88" rx="37.12"/><line class="cls-3" x1="554.85" y1="597.96" x2="2575.83" y2="597.96"/><rect class="cls-4" x="779.01" y="529.44" width="38.42" height="38.42" rx="10.49"/><rect class="cls-4" x="713.47" y="529.44" width="38.42" height="38.42" rx="10.49"/><rect class="cls-4" x="647.94" y="529.44" width="38.42" height="38.42" rx="10.49"/><rect class="cls-5" x="771.09" y="522.39" width="38.42" height="38.42" rx="10.49"/><rect class="cls-6" x="705.55" y="522.39" width="38.42" height="38.42" rx="10.49"/><rect class="cls-7" x="640.01" y="522.39" width="38.42" height="38.42" rx="10.49"/></g></g><path class="cls-8" d="M355.92,1894.24a40,40,0,0,1,56.44,0h0a40,40,0,0,0,56.45,0l4.14-4.12a40,40,0,0,1,56.44,0l6.16,6.13a40,40,0,0,0,56.44,0l5.08-5.06a40,40,0,0,1,56.45,0"/><path class="cls-8" d="M597.06,1891.34a40,40,0,0,1,56.45,0l5.74,5.72a40,40,0,0,0,56.45,0l3.5-3.48a40,40,0,0,1,56.44,0h0a40,40,0,0,0,56.45,0l4.13-4.13a40,40,0,0,1,56.45,0l6.16,6.14a40,40,0,0,0,56.44,0l5.08-5.07a40,40,0,0,1,56.45,0"/><path class="cls-8" d="M355.92,1925.16a40,40,0,0,1,56.44,0h0a40,40,0,0,0,56.45,0L473,1921a40,40,0,0,1,56.44,0l6.16,6.13a40,40,0,0,0,56.44,0l5.08-5.06a40,40,0,0,1,56.45,0"/><path class="cls-8" d="M597.06,1922.26a40,40,0,0,1,56.45,0l5.74,5.72a40,40,0,0,0,56.45,0l3.5-3.48a40,40,0,0,1,56.44,0h0a40,40,0,0,0,56.45,0l4.13-4.13a40,40,0,0,1,56.45,0l6.16,6.14a40,40,0,0,0,56.44,0l5.08-5.07a40,40,0,0,1,56.45,0"/><circle class="cls-8" cx="2050.9" cy="774.12" r="15.41"/><circle class="cls-9" cx="1988.98" cy="720.7" r="22.02"/><g id="PACKAGE"><circle class="cls-4" cx="2263.55" cy="1115.27" r="149.96"/><circle class="cls-2" cx="2263.55" cy="1100.21" r="149.96"/><polygon class="cls-1" points="2291.58 1183.2 2205.7 1183.2 2220.51 1062.24 2306.38 1062.24 2291.58 1183.2"/><polygon class="cls-10" points="2329.38 1183.2 2291.63 1183.2 2306.44 1062.24 2314.57 1062.24 2329.38 1183.2"/><polygon class="cls-8" points="2323.2 1181.72 2286.02 1181.72 2301.51 1055.18 2307.71 1055.18 2323.2 1181.72"/><polygon class="cls-8" points="2301.51 1055.18 2286.02 1181.72 2197.73 1181.72 2213.21 1055.18 2301.51 1055.18"/><path class="cls-8" d="M2265.31,1017.22h6.1a14.16,14.16,0,0,1,14.16,14.16v23.86a0,0,0,0,1,0,0h-34.43a0,0,0,0,1,0,0v-23.86A14.16,14.16,0,0,1,2265.31,1017.22Z"/><path class="cls-8" d="M2255.25,1017.22h6.1a14.16,14.16,0,0,1,14.16,14.16v23.86a0,0,0,0,1,0,0h-34.43a0,0,0,0,1,0,0v-23.86a14.16,14.16,0,0,1,14.16-14.16Z"/></g><g id="CHAIR"><path class="cls-8" d="M1610.25,1877.8c-11.52,0-20.86,9-20.86,20.17v168.66c0,33.88,28.4,61.34,63.42,61.34h106.9c20.82,0,37.69,16.32,37.69,36.46"/><path class="cls-8" d="M1544.94,1877.8c11.51,0,20.85,9,20.85,20.17v168.66c0,33.88-28.39,61.34-63.42,61.34h-106.9c-20.81,0-37.69,16.32-37.69,36.46"/><ellipse class="cls-2" cx="1577.59" cy="1384.28" rx="503.96" ry="476.76"/><ellipse class="cls-11" cx="1577.59" cy="1353.4" rx="446.59" ry="422.49"/><path class="cls-12" d="M1883.27,1611.08c18.7,2.79,26,25.83,12.36,38.92-81,77.71-193.57,125.89-318,125.89-124.26,0-236.67-48-317.62-125.48-13.66-13.07-6.38-36.12,12.31-38.93,93.89-14.16,197.67-22,306.79-22C1687.19,1589.47,1790.06,1597.17,1883.27,1611.08Z"/><circle class="cls-8" cx="1358.44" cy="2203" r="38.57"/><circle class="cls-8" cx="1579.49" cy="2203" r="38.57"/><circle class="cls-8" cx="1797.89" cy="2203" r="38.57"/></g><g id="PLANT"><g id="PLANT-2" data-name="PLANT"><path class="cls-9" d="M2410.39,1549.3c-53.53,81-154.42,125.34-199,100.27-43.09-24.24-46.85-143.64,6.69-224.69s143-118.91,195.05-84.55S2463.93,1468.24,2410.39,1549.3Z"/><path class="cls-8" d="M2217.35,1922.63s-53.92-437.41,195.4-580.32"/><line class="cls-8" x1="2448.06" y1="1439.92" x2="2298.76" y2="1455.16"/><line class="cls-8" x1="2446.02" y1="1455.68" x2="2289.33" y2="1471.67"/><line class="cls-8" x1="2219.86" y1="1425.76" x2="2257.8" y2="1537.88"/><path class="cls-9" d="M2608.29,1772.73c-16.55,42.7-89.09,54.41-162,26.14s-101.05-84.42-97.86-103.08c4-23.52,90.08-63.68,157.81-51.57C2583.21,1658,2624.85,1730,2608.29,1772.73Z"/><path class="cls-8" d="M2172.76,1922.63s-6.54-192.14,196.37-231.58c111.1-21.59,197,34.24,236.44,81.58"/><line class="cls-8" x1="2480.04" y1="1694.06" x2="2549.32" y2="1662.31"/><line class="cls-8" x1="2497.33" y1="1699.57" x2="2561.85" y2="1669.38"/><line class="cls-8" x1="2451.37" y1="1688.49" x2="2478.37" y2="1806.16"/><path class="cls-9" d="M2132.1,1637.16c32.93,49.7,27.77,120.09,1,136.45-16.24,9.93-84.52-8-117.44-57.72s-32.81-109.34-.92-130.47S2099.18,1587.46,2132.1,1637.16Z"/><path class="cls-8" d="M2148.5,1922.63S2167,1674.14,2015.7,1588"/><line class="cls-8" x1="1994.64" y1="1660.55" x2="2090.1" y2="1660.55"/><line class="cls-8" x1="1999.45" y1="1677.06" x2="2099.53" y2="1677.06"/><line class="cls-8" x1="2134.37" y1="1644.01" x2="2117.21" y2="1712.46"/></g><g id="VASE"><path class="cls-2" d="M2320.63,1965.06v172.8a42.39,42.39,0,0,1-42.44,42.43H2105.4a42.4,42.4,0,0,1-42.44-42.43v-172.8a42.46,42.46,0,0,1,42.44-42.43h172.79a42.45,42.45,0,0,1,42.44,42.43Z"/><rect class="cls-13" x="2062.96" y="1922.63" width="257.66" height="257.66" rx="41.1"/><path class="cls-8" d="M2320.63,1965.06v172.8a42.39,42.39,0,0,1-42.44,42.43H2105.4a42.4,42.4,0,0,1-42.44-42.43v-172.8a42.46,42.46,0,0,1,42.44-42.43h172.79a42.45,42.45,0,0,1,42.44,42.43Z"/></g></g><text class="cls-14" transform="translate(1703.95 1493.22)">faf9f7</text><g id="BASKET"><circle class="cls-4" cx="899.82" cy="862.11" r="158.38"/><circle class="cls-2" cx="899.82" cy="842.11" r="158.38"/><polygon class="cls-10" points="857.27 889.1 964.84 889.1 986.38 819.43 835.82 819.43 857.27 889.1"/><path class="cls-8" d="M781.81,787.63h22.74a15.88,15.88,0,0,1,15.17,11.19l27.1,87.64H956.34l5.41,21.93a11.16,11.16,0,0,1-10.84,13.83H851.38"/><polygon class="cls-8" points="846.73 886.46 956 886.46 978.63 813.28 824.19 813.28 846.73 886.46"/><line class="cls-8" x1="915.83" y1="886.46" x2="938.46" y2="813.28"/><line class="cls-8" x1="891.43" y1="886.46" x2="868.8" y2="813.28"/><line class="cls-8" x1="834.77" y1="847.49" x2="968.06" y2="847.49"/><circle class="cls-8" cx="864.27" cy="941.73" r="11.05"/><circle class="cls-8" cx="944.62" cy="941.73" r="11.05"/><line class="cls-8" x1="901.19" y1="729.59" x2="901.19" y2="786.16"/><polyline class="cls-8" points="873.58 761.75 900.93 789.1 926.84 763.19"/></g></g><g id="Layer_3" data-name="Layer 3"><g id="LEGS"><path id="HIPS" class="cls-5" d="M1754.8,1306.33s106.54,176.42,58,260.78-134.06,115.7-235.2,104.82c-256.22-27.55-571.66-224.78-563.71-288.41,10.73-85.86,482.47,12.55,482.47,12.55l42-88.88Z"/><g id="LEFT_LEG" data-name="LEFT LEG"><path id="LEG" class="cls-5" d="M1016.9,1373.41c-14.24,14.66-118.24,218.56,509.53,366.91L1550,1697S1129.39,1257.56,1016.9,1373.41Z"/><path id="SHADOW" class="cls-15" d="M1550.86,1697s-210.6-220-373.61-307.65"/><path id="FOOT" class="cls-16" d="M1526.43,1740.32c29,5.18,152.2,47.77,179.47,42.09s-16-86.6-33-90-101,6.07-122.87,4.59S1526.43,1740.32,1526.43,1740.32Z"/></g><g id="RIGHT_LEG" data-name="RIGHT LEG"><path id="LEG-2" data-name="LEG" class="cls-5" d="M1675.55,1559c-109.32,230.49-420.71,493.38-420.71,493.38s-23.53-20.37-53.07-21.63c0,0,278.64-619.66,436-649.72C1765,1356.68,1693.92,1520.24,1675.55,1559Z"/><path id="FOOT-2" data-name="FOOT" class="cls-16" d="M1201.68,2029.28c-27.77,44.29-70.73,137.41-97.68,169.7-8.76,10.49,68.58,13.61,80.32,4.27,16.13-12.83,17.36-60.84,49.39-67,22.41-4.29,44.87-19.25,34.42-40.85-14.72-30.4-12.58-44.79-12.58-44.79C1230.21,2022.34,1201.68,2029.28,1201.68,2029.28Z"/></g></g><g id="LEFT_HAND" data-name="LEFT HAND"><path id="HAND" class="cls-16" d="M1546.68,974.34c51.13,83.52-16.16,277-47.12,305.9-57.34,53.59-307.29,46-307.29,46l-10.15-23s137.75-75.11,247.68-81.07c0,0,29.33-150.76,39.06-194C1481.12,973.68,1511.39,916.69,1546.68,974.34Z"/><path id="ARM" class="cls-17" d="M1210.3,1305.24c-5.51-13.8-52.7-5.16-71.45,3.55-15.95,7.41-35.24,27.3-38.39,31.51s-10.16,25.47-10.16,25.47,6.79,7.18,15.94-5.34,32.88-26.86,38.77-23.72c13.24,7.07-18.84,9.85-22.35,14.93s-1.84,8.1-1.84,8.1,30.15-1.37,35-2,24.07-9.33,33.47-17.21S1213.74,1313.84,1210.3,1305.24Z"/></g><path id="TORSO" class="cls-2" d="M1750,923.81c15.48,4.59,64,22.65,64,22.65s-4.11,117.26-17.87,145c-57.64,116.22-39.7,223.3-39.7,223.3s-136.5,22.72-220,.81c0,0,10.92-88.42-6.92-99s-47.06-34.35-39-82.21,6.22-173.37,16-181.48,53-29.21,64.16-29.17S1750,923.81,1750,923.81Z"/><g id="LAPTOP"><path class="cls-18" d="M1323.93,1160.58H1018.28a20.91,20.91,0,0,0-19.62,28.14l77,209.39h357.92l-79.68-216.6A32,32,0,0,0,1323.93,1160.58Z"/><path class="cls-18" d="M1317.92,1171.2h-298a20.4,20.4,0,0,0-19.14,27.44l75.12,204.18h349l-77.7-211.21A31.19,31.19,0,0,0,1317.92,1171.2Z"/><path class="cls-7" d="M1075.85,1398.79H1582a21.6,21.6,0,0,1,21.6,21.6v4.76a0,0,0,0,1,0,0H1097.45a21.6,21.6,0,0,1-21.6-21.6v-4.76A0,0,0,0,1,1075.85,1398.79Z"/><path class="cls-7" d="M1323.93,1160.58H1018.28a20.91,20.91,0,0,0-19.62,28.14l77,209.39h357.92l-79.68-216.6A32,32,0,0,0,1323.93,1160.58Z"/><ellipse class="cls-7" cx="1200.5" cy="1289.1" rx="19.6" ry="24.17" transform="translate(-560.78 1318.7) rotate(-48)"/><rect class="cls-18" x="1460.59" y="1408.21" width="21.39" height="7.68"/><rect class="cls-18" x="1501.46" y="1408.21" width="21.39" height="7.68"/></g><path class="cls-4" d="M1597.65,694.92s-73.71-34.58-119.39,37.91c-45.79,72.66,17,105-15.8,142.1-35.49,40.16-80.42,63.68-44,143.26,37.12,81.15-57.54,51.23-37.07,141.57h160.5s69.05-24.17,48.33-83.72-65.12-67.79-23.51-120.33c31.25-39.45,175.42-31.41,188.37-28S1823.21,950,1823.21,950s21.94-65.65-9.44-101.81c-39.71-45.74-105.93-12-118-65.69-8.16-36.2-24-78.24-50.32-86.19C1617.17,687.77,1597.65,694.92,1597.65,694.92Z"/><path class="cls-8" d="M1591.09,704s-15.5-24.07-94.2,30.8c-48.64,33.92-14.64,103-47.44,140.1-35.49,40.16-80.41,63.68-44,143.26,37.12,81.15-57.54,51.23-37.07,141.57"/><path class="cls-16" d="M1653.87,821.05s-2.46,54.67,17.49,82.72c13.57,19.05,1.38,17.45,48.7,22.89,0,0,4.94,70.19-104.62,70.19-81.3,0-48.75-41.14-48.75-41.14s33.94-49.17,19.31-134.66Z"/><path class="cls-4" d="M1654.94,816.8s2.1,109.86-85.75,109.86a11.84,11.84,0,0,1-5.13-1.19c4.62-3.22,33.46-26.94,19.23-110.09h71.65s0,.48,0,1.38Z"/><path id="HEAD" class="cls-16" d="M1657.34,815s-12.58,93.92-72.23,94.37c-39.23.29-61.89-54.72-71.08-83.56-10.49-32.93.63-98.75,56.59-97.92,48.6.73,74,67,74,67Z"/><path class="cls-8" d="M1645.87,810.24s-2.38-8.13-.18-15.47c1.4-4.65,4.65-9,11.51-10.72"/><line class="cls-8" x1="1657.2" y1="800.11" x2="1645.69" y2="794.77"/><path class="cls-16" d="M1746.3,955s-34.38,89.12,20.61,137c17.73,15.43,43.9,1.33,43.9,1.33"/><path class="cls-16" d="M1772.1,1045.4c19.6,62.06,45.59,149.79,45.59,149.79-103.1,5.6-258.54,68.13-277.47,75.88-31.42,7-75.91,32.44-84.46,37.55-8,4.55-20.58,17.16-24.38,22.22-4,5.28-13.31,24.29-13.31,24.29a9.88,9.88,0,0,0,11.94-2.5c3.67-4,9.83-13.64,14.77-18.33-4.48,11.25-8.67,22.87-8.67,22.87s11.11,2.72,25.35-1.88c6.82-2.2,14.36-15.28,22.34-23.89s25.39-4.54,42.82-7.49,29.53-28.51,29.53-28.51l-.24-.42c45.25.75,283.23,2.3,335.07-46.14,31-28.93-9.18-217.34-60.31-300.85-22.49-36.72-56-31.79-71.71-8.41-5.25,7.79-11.52,12.34-11.78,23.37"/><path class="cls-8" d="M1445,1357.92a1.06,1.06,0,0,1-.58-.07,1,1,0,0,1-.56-1.37c1.34-3.18,13.24-31.15,18.48-34.94,9.09-6.58,20.93-15.21,20.93-15.21l1.24,1.7s-11.85,8.64-20.93,15.21c-4,2.92-14.21,25.57-17.78,34A1.07,1.07,0,0,1,1445,1357.92Z"/><path class="cls-8" d="M1456.32,1356a1.06,1.06,0,0,1-1.13-1.48c.48-1,11.86-25.73,17.18-29.58,9.09-6.57,20.93-15.2,20.93-15.2l1.24,1.7s-11.85,8.63-20.93,15.21c-4,2.92-13.29,21.74-16.51,28.75A1.06,1.06,0,0,1,1456.32,1356Z"/><path class="cls-4" d="M1640.88,837s-.21,120.87,65.26,129.6,117.31-34.72,117.31-34.72"/><polyline class="cls-8" points="1559.91 816.61 1556.37 845.83 1568.73 853.04"/><ellipse class="cls-4" cx="1583.52" cy="810.94" rx="5.02" ry="6.63" transform="translate(-179.22 570.27) rotate(-19.34)"/><ellipse class="cls-4" cx="1539.27" cy="822.26" rx="5.02" ry="6.63" transform="translate(-185.46 556.25) rotate(-19.34)"/><path class="cls-8" d="M1567.73,790.91s8.64-10.31,27.26-1.33"/><path class="cls-8" d="M1522.06,805.33s4.87-12.56,22.83-7.22"/><path class="cls-4" d="M1549.1,723.19s28.93-12,38.58,16.63,25.37,52.54,57.08,35.91,18.73-38.24,18.73-38.24"/><circle class="cls-19" cx="1648.9" cy="794.77" r="20.65"/><path class="cls-8" d="M1641.06,807.37s-2.39-8.13-.18-15.47c1.39-4.65,4.64-9,11.5-10.72"/><line class="cls-8" x1="1652.38" y1="797.24" x2="1640.88" y2="791.9"/><path class="cls-9" d="M1639.81,772.82c-5.89-53.83-59.46-84.64-60-84.84l25.8,1.76c3.12,1.06,32.83,5.18,60.55,76.57Z"/><ellipse class="cls-9" cx="1654.97" cy="805.66" rx="24.81" ry="40.55" transform="translate(-91.97 225.82) rotate(-7.6)"/><ellipse class="cls-9" cx="1663.55" cy="804.52" rx="24.81" ry="40.55" transform="translate(-91.75 226.95) rotate(-7.6)"/><path class="cls-8" d="M1568.73,867.85s19.28,3.32,27.92-15.74"/></g></svg>