<?xml version="1.0" encoding="iso-8859-1"?>
<!-- Generator: Adobe Illustrator 21.1.0, SVG Export Plug-In . SVG Version: 6.00 Build 0)  -->
<svg version="1.1" id="Layer_1" xmlns="http://www.w3.org/2000/svg" xmlns:xlink="http://www.w3.org/1999/xlink" x="0px" y="0px"
	 viewBox="0 0 100.353 100.353" style="enable-background:new 0 0 100.353 100.353;" xml:space="preserve">
<g>
	<path d="M51.775,54.264C31.718,54.264,15.4,71.193,15.4,92c0,0.828,0.671,1.5,1.5,1.5h69.75c0.828,0,1.5-0.672,1.5-1.5
		C88.15,71.193,71.833,54.264,51.775,54.264z M18.431,90.5c0.757-18.46,15.424-33.236,33.345-33.236
		c17.92,0,32.587,14.776,33.345,33.236H18.431z"/>
	<path d="M51.146,50.142c11.568,0,20.98-9.74,20.98-21.713S62.715,6.716,51.146,6.716s-20.979,9.74-20.979,21.713
		S39.578,50.142,51.146,50.142z M51.146,9.716c9.914,0,17.98,8.395,17.98,18.713s-8.066,18.713-17.98,18.713
		s-17.979-8.395-17.979-18.713S41.232,9.716,51.146,9.716z"/>
</g>
</svg>
